<svg id="Layer_1" data-name="Layer 1" xmlns="http://www.w3.org/2000/svg" viewBox="0 0 1818 829.45"><path d="M126.76,697.77V362.11c0-1.59,0-3.17,0-4.76-.2-5.47-3.11-8.61-8.49-8.63q-34.07-.11-68.13,0A7.78,7.78,0,0,0,42,356.56c-.1,4.67,2.78,7.73,7.78,8.19,1.57.15,3.16.11,4.75.11q25.6,0,51.23,0c4.7,0,4.71.07,4.79,4.61,0,1.41,0,2.82,0,4.22v326c0,1.93-.07,3.88,0,5.81.36,5.81,3.24,8.59,9,8.79.88,0,1.76,0,2.64,0H252.65c1.23,0,2.47.07,3.69,0a8.08,8.08,0,0,0,7.72-7.86c.11-1.57,0-3.16,0-4.75q0-165.08,0-330.17c0-7.27-1-6.56,6.37-6.57q54.13,0,108.27,0a25.82,25.82,0,0,0,2.64,0c2.93-.31,4.27.88,3.95,3.91-.14,1.39,0,2.81,0,4.22q0,163.77,0,327.53c0,2.11-.05,4.23.15,6.33a7.89,7.89,0,0,0,7.56,7.38c1.05.1,2.11,0,3.17,0H527.7a32.6,32.6,0,0,0,3.7-.06,8,8,0,0,0,7.31-7.66c.12-1.57,0-3.16,0-4.75q0-165.09,0-330.17c0-7.56-1-6.73,6.72-6.75,16.54,0,33.09,0,49.64,0a38.53,38.53,0,0,0,5.79-.27,7.56,7.56,0,0,0,6.49-7.72,7.88,7.88,0,0,0-6.78-8.09,26.79,26.79,0,0,0-3.7-.08H533c-7.6,0-10.18,2.51-10.32,10,0,1.58,0,3.17,0,4.75q0,163.77,0,327.53c0,7.23,1,6.82-6.78,6.82H401.42V361.39c0-1.59.07-3.18,0-4.76-.28-4.8-3.21-7.66-8.09-7.93-.87-.05-1.76,0-2.64,0h-132a30.23,30.23,0,0,0-3.69.07,7.62,7.62,0,0,0-6.72,6.42,48.81,48.81,0,0,0-.29,6.85q0,164.28,0,328.58c0,7.76.94,7.15-7,7.15H126.76Z"/><path d="M1223.3,366.78V701.63c0,1.76-.11,3.53.06,5.28.48,4.87,3.68,7.7,8.4,7.54s7.11-2.66,7.5-7.74c.16-2.1.11-4.22.11-6.33V375.48c0-1.41,0-2.82,0-4.23.07-4.48.08-4.53,4.76-4.53h110.91a53.32,53.32,0,0,0,6.33-.14,7.51,7.51,0,0,0,6.43-7.27,7.37,7.37,0,0,0-6.18-7.43,34.16,34.16,0,0,0-5.26-.3c-5.64,0-11.27,0-16.9,0q-112.48-.21-225-.38c-47.88,0-95.76.24-143.64.39a34.15,34.15,0,0,0-5.26.28,7.36,7.36,0,0,0-6.23,7.37,7.51,7.51,0,0,0,6.86,7.4c1.92.17,3.87.09,5.8.09h108.8c1.23,0,2.48.1,3.7,0,2.58-.25,3.48.95,3.3,3.39-.11,1.4,0,2.82,0,4.23q0,163,0,326c0,2.28,0,4.58.15,6.86.42,4.72,2.92,7.13,7.35,7.31s7.8-2.39,8.43-6.92a43.07,43.07,0,0,0,.12-5.8q0-163.77,0-327.54c0-7.41,0-7.41,7.64-7.41H1223.3Z"/><path d="M654.93,529.09c-.35,31.1,3.69,59.47,13.8,86.81,10.4,28.13,26.5,52.27,50.66,70.54,18.85,14.26,40.09,22.83,63.32,26.87a174.39,174.39,0,0,0,47.82,1.8c53-5.45,92.76-31.19,117.89-78.53,10.89-20.5,17.12-42.52,20.35-65.47a272.94,272.94,0,0,0,2.88-47.35c-1.14-33.49-6.87-66-22.37-96.12-21.22-41.21-54.19-67.74-99.75-77.3-36.37-7.63-72-4.81-106,11.15C715,374.9,694,396.31,679,423.87c-10.9,20.11-17.44,41.65-21,64.19C655.83,502.35,654.54,516.67,654.93,529.09Zm300.79,1.49c-.55,8.95-1,17.91-1.68,26.85a190.66,190.66,0,0,1-12.84,55.66c-10.19,25.75-25.62,47.6-48.51,63.67-19.43,13.64-41.14,20.7-64.7,23a151.53,151.53,0,0,1-53.3-4.13c-37.8-9.89-64.88-33.14-82.75-67.49-14.91-28.66-20.16-59.65-21.1-91.55a248.73,248.73,0,0,1,3-44.69c3.08-20.45,8.8-40.07,18.43-58.4,15.12-28.75,37.19-50.05,67.73-62,23.26-9.07,47.36-10.93,72-8.3a128.23,128.23,0,0,1,53.92,18c28.42,17.35,46.41,42.9,57.45,73.79C952.11,479.41,955.47,504.72,955.72,530.58Z"/><path d="M1672.26,533.55c.27-31.43-3.74-59.43-13.71-86.43-11.3-30.63-29.25-56.34-56.44-75-18.54-12.72-39.1-20.2-61.31-23.55a174.51,174.51,0,0,0-48.89-.75c-46.67,6.08-83.18,28.4-108,68.86-12.8,20.91-20.35,43.75-24.48,67.84a267.23,267.23,0,0,0-3.94,54.08c1.06,31.65,6.17,62.51,19.89,91.39,19.39,40.8,50.13,68.42,94.23,80.26,18.32,4.91,36.94,6.24,55.85,5.17a154.7,154.7,0,0,0,55.91-13.38c29.4-13.36,51.18-34.84,66.52-63,11-20.23,17.6-41.92,21.16-64.62C1671.36,559.94,1672.61,545.44,1672.26,533.55Zm-300.79-2.36c.54-8.78,1-17.56,1.65-26.33a192.11,192.11,0,0,1,12.8-55.67c10-25.44,25.23-47,47.67-63,18.08-12.91,38.31-20.23,60.35-22.83,16.89-2,33.76-1.9,50.38,1.52,41.38,8.52,71.51,32.12,90.93,69.47,14.9,28.68,20.16,59.65,21.08,91.55a248.57,248.57,0,0,1-3,44.17c-3.12,20.8-9,40.7-18.87,59.34-16.06,30.32-39.71,52.11-72.38,63.32a146.7,146.7,0,0,1-61.28,7.17c-19-1.68-37-6.24-53.74-15.27-28.64-15.43-47.82-39.24-60.1-69C1375.8,588.62,1371.71,560.28,1371.47,531.19Z"/><path d="M495.79,182.7v79.71c0,1.41-.07,2.82.06,4.22.35,3.82,1.45,4.82,5.3,5,.35,0,.7,0,1.05,0,17.77,0,35.54.08,53.31-.12a90.27,90.27,0,0,0,31.91-6.21c21-8.19,35.05-23.23,42-44.45a120.19,120.19,0,0,0,.34-75.75c-9.09-28.25-29.18-44.42-58-49.88a140,140,0,0,0-23.07-2.05c-15-.31-29.91-.1-44.86-.08-7.22,0-8.07.86-8.07,8.27Q495.77,142.05,495.79,182.7Zm8.83-81.28c11.42,0,22-.14,32.51,0,9.49.16,19.08-.1,28.44,1.17,28.59,3.88,48.36,19.1,56.74,47.27a113.18,113.18,0,0,1-.1,65.57c-7,23.66-22.8,38.65-46.67,45-8.74,2.34-17.67,3-26.67,3-12.67,0-25.35,0-38,0-6.87,0-6.22.55-6.22-6.28q0-74.74,0-149.48Z"/><path d="M842,183.85c.12-16.79-2.13-31.85-8-46.22-12.22-29.72-37.28-46.55-69.42-46.81-21.94-.17-41.2,6.36-56.57,22.58a76.75,76.75,0,0,0-17.69,30.87c-7.95,26.17-8,52.45.69,78.39,11.25,33.47,38.73,52.29,74,51.44,37.76-.9,64.78-23.35,73.64-61.22A117.25,117.25,0,0,0,842,183.85Zm-8.16-1.36c-.54,6.3-.85,12.64-1.7,18.9a94.33,94.33,0,0,1-3.06,13.89c-11.35,38.33-42.27,55.36-78.34,49.65C726,261,709.43,246.27,700.44,223.24c-9.11-23.36-9.56-47.4-3.36-71.55,8.21-32,32.8-55,71.53-52.45,26.5,1.74,45.18,15.09,56.28,39C831.36,152.24,833.54,167.16,833.85,182.49Z"/><path d="M118.61,274.1c18.77,0,31.56-2.52,43.23-9.48,17.84-10.64,26.24-29.82,21.84-50.14-2.09-9.64-7.83-16.76-16-22-9-5.8-19-9.09-29.23-11.73-10-2.59-20.23-4.63-30.14-7.61a99.67,99.67,0,0,1-19.4-8c-20.65-11.44-18.77-34.57-10-46.94a41.87,41.87,0,0,1,20.86-15.47c16.65-5.78,33.27-5.29,49.31,2.08,12.27,5.64,21,14.65,23.4,28.58.15.86.24,2,.8,2.46,1.11,1,2.7,2.35,3.76,2.11,1.36-.3,3.18-1.92,3.39-3.2a17.91,17.91,0,0,0-.56-7.26c-2.84-10.66-9.31-18.77-18.25-25-21.09-14.75-53.73-15.58-75.55-1.94-17.26,10.8-25,28.77-20.71,47.95,2,9.05,7.11,16,14.51,21.29,9.46,6.8,20.36,10.18,31.47,13s22.18,5.44,33.16,8.54a71.34,71.34,0,0,1,13.62,5.59c18.47,9.71,23.71,31,12.15,48.51a41.09,41.09,0,0,1-20.91,16.22c-18.68,6.73-37.38,6.41-55.47-1.9-13.87-6.37-23.2-16.86-25.57-32.55-.13-.87-.15-2-.69-2.5-1.2-1.06-2.78-2.57-4-2.43a5,5,0,0,0-3.36,3.22,16.85,16.85,0,0,0,.43,6.75C64,247.26,73.1,258,86.38,265.29,98.06,271.73,110.74,274.13,118.61,274.1Z"/><path d="M336.68,157.82c0,16.9-.25,33.81.12,50.7.16,7.34.73,14.87,2.63,21.91,5.45,20.16,18.44,33.71,38.4,40.05a78.73,78.73,0,0,0,48.83,0c22.95-7.36,36-23.58,40.2-47.07A89.13,89.13,0,0,0,468,208.19q.13-54.41.05-108.81a39.51,39.51,0,0,0-.11-4.22,3.72,3.72,0,0,0-3.86-3.58,3.9,3.9,0,0,0-4.41,3.61,32.63,32.63,0,0,0-.12,4.75c0,36.27.11,72.54-.12,108.81a74.36,74.36,0,0,1-2.54,19.79c-6.2,21.59-21.44,33.08-43.16,36.62a71,71,0,0,1-29.84-1.44c-22.41-5.9-37-24-38.42-47.42-.21-3.51-.22-7-.22-10.56q0-52.56,0-105.12a37,37,0,0,0-.16-5.27c-.34-2.35-1.75-3.89-4.27-3.82a3.76,3.76,0,0,0-4,4c-.08,1.58-.09,3.16-.09,4.75Q336.68,129,336.68,157.82Z"/><path d="M258.91,101.42h42c5.45,0,10.91.08,16.36,0,3.47-.08,5-1.49,5-4.08s-1.53-3.89-5-4.15c-1-.08-2.11,0-3.17,0H195.3c-1.23,0-2.47-.07-3.69,0-3,.32-4.58,1.75-4.59,4.09s1.58,3.85,4.51,4.12c1.23.11,2.47,0,3.7,0H250.4V264.56a39.6,39.6,0,0,0,.08,4.75c.34,2.77,2.15,4.48,4.46,4.22a4,4,0,0,0,3.91-4.19c.08-1.58.06-3.16.06-4.75V101.42Z"/><path d="M655.84,182.23q0,41.43,0,82.86c0,1.58,0,3.17.13,4.74a3.81,3.81,0,0,0,3.79,3.68,3.87,3.87,0,0,0,4.29-3.14,16.68,16.68,0,0,0,.3-4.19q0-83.66,0-167.3a18.86,18.86,0,0,0-.29-4.19,3.8,3.8,0,0,0-4.27-3.12A3.66,3.66,0,0,0,656,95.15c-.14,1.58-.12,3.17-.12,4.75Q655.83,141.06,655.84,182.23Z"/></svg>