<?xml version="1.0" encoding="UTF-8" standalone="no"?>
<!-- Created with Inkscape (http://www.inkscape.org/) -->

<svg
   version="1.1"
   id="svg2"
   width="2560"
   height="1440"
   viewBox="0 0 2560 1440"
   sodipodi:docname="logo wotto.ai"
   xmlns:inkscape="http://www.inkscape.org/namespaces/inkscape"
   xmlns:sodipodi="http://sodipodi.sourceforge.net/DTD/sodipodi-0.dtd"
   xmlns="http://www.w3.org/2000/svg"
   xmlns:svg="http://www.w3.org/2000/svg">
  <defs
     id="defs6">
    <clipPath
       clipPathUnits="userSpaceOnUse"
       id="clipPath16">
      <path
         d="M 0,1080 H 1920 V 0 H 0 Z"
         id="path14" />
    </clipPath>
  </defs>
  <sodipodi:namedview
     id="namedview4"
     pagecolor="#ffffff"
     bordercolor="#000000"
     borderopacity="0.25"
     inkscape:showpageshadow="2"
     inkscape:pageopacity="0.0"
     inkscape:pagecheckerboard="0"
     inkscape:deskcolor="#d1d1d1" />
  <g
     id="g8"
     inkscape:groupmode="layer"
     inkscape:label="logo wotto"
     transform="matrix(1.3333333,0,0,-1.3333333,0,1440)">
    <g
       id="g10">
      <g
         id="g12"
         clip-path="url(#clipPath16)">
        <g
           id="g18"
           transform="translate(288.2196,224.1295)">
          <path
             d="m 0,0 v 6.514 c 0,100.852 0,201.705 0,302.558 0,1.459 0.041,2.92 -0.012,4.377 -0.186,5.043 -2.861,7.93 -7.811,7.946 -20.911,0.069 -41.823,0.067 -62.733,-0.005 -4.439,-0.015 -7.435,-3.087 -7.52,-7.214 -0.089,-4.293 2.559,-7.117 7.164,-7.54 1.448,-0.133 2.914,-0.095 4.372,-0.096 15.724,-0.006 31.448,0.011 47.172,-0.014 4.333,-0.006 4.339,-0.06 4.417,-4.241 0.024,-1.297 0.005,-2.594 0.005,-3.891 0,-100.042 -10e-4,-200.084 10e-4,-300.126 0,-1.783 -0.06,-3.572 0.048,-5.349 0.328,-5.349 2.977,-7.917 8.265,-8.098 0.809,-0.028 1.621,-0.006 2.431,-0.006 40.039,-10e-4 80.078,-10e-4 120.117,0.001 1.135,0 2.277,-0.069 3.403,0.038 4.116,0.39 6.81,3.124 7.102,7.229 0.104,1.452 0.03,2.917 0.03,4.376 0,101.339 -0.005,202.678 0.013,304.018 0.001,6.695 -0.906,6.045 5.865,6.05 33.231,0.021 66.462,0.009 99.692,0.009 0.811,0 1.629,-0.072 2.431,0.011 2.702,0.281 3.93,-0.812 3.641,-3.598 -0.133,-1.283 -0.021,-2.592 -0.021,-3.889 0,-100.528 0,-201.056 0.006,-301.585 0,-1.944 -0.047,-3.9 0.145,-5.83 0.387,-3.896 3.023,-6.419 6.955,-6.795 0.965,-0.092 1.944,-0.034 2.917,-0.034 40.363,-0.002 80.726,-0.002 121.089,0 1.135,0 2.282,-0.081 3.402,0.053 3.857,0.461 6.467,3.191 6.739,7.048 0.102,1.453 0.026,2.918 0.026,4.377 10e-4,101.339 -0.005,202.678 0.015,304.017 0.001,6.966 -0.948,6.197 6.184,6.214 15.237,0.037 30.475,0.004 45.713,0.022 1.779,0.002 3.583,-0.02 5.332,0.252 3.605,0.562 5.946,3.454 5.977,7.103 0.031,3.809 -2.539,6.927 -6.249,7.451 -1.115,0.158 -2.266,0.072 -3.4,0.072 -19.614,0.003 -39.229,0.01 -58.843,-0.002 -7.001,-0.004 -9.371,-2.311 -9.501,-9.176 -0.028,-1.459 -0.006,-2.918 -0.006,-4.378 -10e-4,-100.528 0.004,-201.056 -0.01,-301.585 -10e-4,-6.658 0.879,-6.281 -6.248,-6.282 C 325.247,-0.003 292.178,0 259.109,0 h -6.207 c 0,2.563 0,4.629 0,6.695 0,101.014 0,202.027 0,303.04 0,1.459 0.064,2.923 -0.021,4.377 -0.258,4.421 -2.962,7.053 -7.449,7.303 -0.808,0.045 -1.621,0.012 -2.432,0.012 -40.525,0 -81.05,10e-4 -121.576,-0.001 -1.134,0 -2.281,0.078 -3.401,-0.059 -3.166,-0.39 -5.726,-2.745 -6.18,-5.914 -0.296,-2.073 -0.268,-4.202 -0.268,-6.306 -0.012,-100.852 -0.006,-201.705 -0.02,-302.558 -0.001,-7.148 0.862,-6.58 -6.445,-6.583 C 72.203,-0.007 39.297,0 6.39,0 Z"
             style="fill:#000000;fill-opacity:1;fill-rule:nonzero;stroke:none"
             id="path20" />
        </g>
        <g
           id="g22"
           transform="translate(1297.9078,528.9001)">
          <path
             d="m 0,0 c 0,-2.594 0,-4.661 0,-6.727 0,-100.533 0,-201.066 0.001,-301.599 0,-1.622 -0.103,-3.255 0.054,-4.862 0.439,-4.491 3.389,-7.089 7.733,-6.948 4.261,0.138 6.55,2.449 6.903,7.126 0.145,1.937 0.103,3.889 0.103,5.834 0.004,99.722 0.004,199.444 0.004,299.166 0,1.297 -0.017,2.595 0.004,3.892 0.065,4.125 0.071,4.17 4.384,4.171 34.043,0.013 68.086,0.006 102.128,0.012 1.945,0 3.91,-0.105 5.83,0.128 3.324,0.403 5.813,3.346 5.919,6.697 0.103,3.289 -2.294,6.266 -5.692,6.834 -1.588,0.265 -3.229,0.267 -4.847,0.277 -5.187,0.032 -10.374,0.005 -15.561,0.014 -69.052,0.124 -138.104,0.323 -207.156,0.348 -44.087,0.016 -88.174,-0.222 -132.261,-0.359 -1.618,-0.005 -3.259,-0.003 -4.848,-0.256 -3.391,-0.539 -5.8,-3.485 -5.736,-6.792 0.067,-3.541 2.721,-6.476 6.313,-6.805 1.77,-0.163 3.564,-0.087 5.347,-0.088 33.394,-0.003 66.789,-0.002 100.183,-0.003 1.135,0 2.278,-0.093 3.402,0.015 2.378,0.23 3.209,-0.88 3.038,-3.127 -0.099,-1.29 -0.014,-2.593 -0.014,-3.89 0,-100.047 0,-200.093 0.005,-300.14 10e-4,-2.106 -0.042,-4.223 0.143,-6.317 0.384,-4.349 2.682,-6.566 6.765,-6.733 4.182,-0.172 7.18,2.203 7.76,6.369 0.245,1.753 0.116,3.56 0.116,5.343 0.004,100.533 0.003,201.066 0.003,301.599 0,6.82 0.001,6.821 7.038,6.821 32.26,0 64.52,0 96.779,0 z"
             style="fill:#000000;fill-opacity:1;fill-rule:nonzero;stroke:none"
             id="path24" />
        </g>
        <g
           id="g26"
           transform="translate(1051.5227,378.0775)">
          <path
             d="m 0,0 c -0.511,-8.242 -0.916,-16.492 -1.553,-24.723 -1.369,-17.67 -5.303,-34.783 -11.821,-51.253 -9.384,-23.712 -23.588,-43.834 -44.671,-58.633 -17.883,-12.553 -37.877,-19.059 -59.57,-21.148 -16.645,-1.602 -32.978,-0.406 -49.075,3.805 -34.809,9.107 -59.745,30.516 -76.196,62.14 -13.731,26.395 -18.563,54.932 -19.434,84.304 -0.409,13.784 0.705,27.498 2.763,41.149 2.838,18.831 8.103,36.892 16.975,53.769 13.919,26.477 34.238,46.088 62.364,57.061 21.414,8.355 43.608,10.07 66.291,7.644 17.777,-1.901 34.384,-7.256 49.653,-16.579 26.171,-15.98 42.733,-39.504 52.903,-67.943 C -3.33,47.108 -0.238,23.808 0,0 m -276.968,1.37 c -0.326,-28.643 3.393,-54.766 12.704,-79.932 9.583,-25.904 24.404,-48.13 46.65,-64.96 17.354,-13.13 36.911,-21.018 58.307,-24.739 14.635,-2.545 29.366,-3.172 44.034,-1.661 48.772,5.024 85.409,28.721 108.552,72.313 10.019,18.873 15.762,39.151 18.732,60.283 2.036,14.477 3.155,29.001 2.656,43.599 -1.052,30.837 -6.327,60.772 -20.602,88.505 -19.533,37.947 -49.892,62.382 -91.847,71.182 -33.489,7.024 -66.342,4.43 -97.629,-10.272 -26.259,-12.339 -45.624,-32.054 -59.369,-57.432 -10.031,-18.519 -16.051,-38.355 -19.302,-59.112 -2.059,-13.15 -3.242,-26.343 -2.886,-37.774"
             style="fill:#000000;fill-opacity:1;fill-rule:nonzero;stroke:none"
             id="path28" />
        </g>
        <g
           id="g30"
           transform="translate(1434.339,377.5125)">
          <path
             d="m 0,0 c 0.5,8.08 0.891,16.169 1.522,24.239 1.381,17.666 5.288,34.774 11.787,51.265 9.231,23.42 23.226,43.289 43.89,58.037 16.652,11.884 35.276,18.629 55.572,21.026 15.552,1.836 31.08,1.745 46.388,-1.407 38.098,-7.845 65.842,-29.569 83.724,-63.967 13.726,-26.403 18.57,-54.924 19.416,-84.299 0.392,-13.622 -0.723,-27.173 -2.746,-40.663 -2.873,-19.159 -8.278,-37.483 -17.371,-54.642 -14.795,-27.919 -36.573,-47.982 -66.651,-58.311 -18.262,-6.272 -37.09,-8.299 -56.423,-6.594 -17.463,1.54 -34.059,5.742 -49.49,14.056 -26.372,14.207 -44.025,36.137 -55.341,63.492 C 3.983,-52.88 0.224,-26.785 0,0 m 276.963,-2.17 c 0.246,28.936 -3.443,54.714 -12.619,79.578 -10.411,28.21 -26.934,51.877 -51.972,69.052 -17.069,11.709 -36.004,18.596 -56.451,21.687 -15.007,2.269 -30.031,2.636 -45.018,0.685 C 67.929,163.236 34.311,142.683 11.493,105.426 -0.296,86.179 -7.248,65.148 -11.05,42.965 -13.877,26.47 -15.235,9.873 -14.677,-6.832 -13.705,-35.978 -9,-64.393 3.639,-90.987 c 17.855,-37.565 46.156,-62.998 86.768,-73.896 16.869,-4.527 34.009,-5.751 51.426,-4.766 17.943,1.014 35.132,4.888 51.48,12.318 27.07,12.301 47.121,32.087 61.253,58.053 10.138,18.628 16.203,38.599 19.484,59.502 2.089,13.306 3.235,26.657 2.913,37.606"
             style="fill:#000000;fill-opacity:1;fill-rule:nonzero;stroke:none"
             id="path32" />
        </g>
        <g
           id="g34"
           transform="translate(636.1481,773.2406)">
          <path
             d="m 0,0 c 10.521,0 20.231,0.127 29.937,-0.038 8.737,-0.148 17.565,0.092 26.185,-1.077 26.329,-3.57 44.533,-17.583 52.252,-43.521 5.965,-20.046 5.856,-40.341 -0.096,-60.383 -6.471,-21.788 -20.997,-35.589 -42.974,-41.476 -8.044,-2.155 -16.27,-2.735 -24.557,-2.736 -11.669,-0.002 -23.338,-0.021 -35.007,0.004 -6.327,0.014 -5.73,-0.506 -5.732,5.787 C -0.007,-97.562 0,-51.684 0,-5.805 Z m -8.129,-74.838 c 0,-24.466 -0.001,-48.933 10e-4,-73.4 0,-1.296 -0.07,-2.6 0.051,-3.886 0.328,-3.515 1.339,-4.439 4.881,-4.636 0.324,-0.018 0.648,-0.009 0.972,-0.008 16.361,0.024 32.723,-0.067 49.082,0.114 10.108,0.111 19.939,2.041 29.385,5.72 19.344,7.536 32.271,21.39 38.685,40.924 7.589,23.111 7.76,46.575 0.307,69.751 C 106.869,-14.242 88.37,0.644 61.861,5.672 54.906,6.991 47.714,7.41 40.616,7.557 26.853,7.842 13.08,7.649 -0.689,7.637 -7.335,7.632 -8.119,6.844 -8.123,0.02 -8.137,-24.932 -8.128,-49.885 -8.129,-74.838"
             style="fill:#000000;fill-opacity:1;fill-rule:nonzero;stroke:none"
             id="path36" />
        </g>
        <g
           id="g38"
           transform="translate(939.3061,698.5936)">
          <path
             d="m 0,0 c -0.5,-5.805 -0.784,-11.64 -1.572,-17.406 -0.589,-4.314 -1.581,-8.612 -2.817,-12.791 -10.444,-35.289 -38.923,-50.975 -72.133,-45.719 -22.75,3.601 -38.047,17.184 -46.32,38.389 -8.393,21.514 -8.805,43.652 -3.097,65.885 7.556,29.429 30.204,50.636 65.86,48.293 24.4,-1.603 41.604,-13.891 51.822,-35.937 C -2.295,27.851 -0.292,14.114 0,0 M 7.507,-1.256 C 7.624,14.209 5.553,28.071 0.11,41.3 c -11.26,27.369 -34.335,42.871 -63.925,43.105 -20.205,0.16 -37.938,-5.856 -52.086,-20.791 -7.715,-8.145 -13.049,-17.762 -16.291,-28.427 -7.324,-24.091 -7.387,-48.288 0.639,-72.181 10.351,-30.814 35.66,-48.147 68.183,-47.365 34.767,0.836 59.649,21.503 67.809,56.376 2.15,9.187 3.278,18.5 3.068,26.727"
             style="fill:#000000;fill-opacity:1;fill-rule:nonzero;stroke:none"
             id="path40" />
        </g>
        <g
           id="g42"
           transform="translate(280.7177,614.2354)">
          <path
             d="m 0,0 c 17.284,-0.021 29.056,2.327 39.807,8.736 16.423,9.79 24.16,27.454 20.104,46.162 -1.925,8.879 -7.206,15.433 -14.724,20.29 -8.267,5.34 -17.483,8.365 -26.909,10.797 -9.24,2.384 -18.626,4.26 -27.753,7.007 -6.149,1.851 -12.256,4.289 -17.866,7.396 -19.015,10.529 -17.287,31.83 -9.174,43.221 4.874,6.843 11.393,11.529 19.206,14.242 15.337,5.323 30.639,4.872 45.409,-1.915 11.299,-5.193 19.306,-13.49 21.547,-26.312 0.139,-0.792 0.223,-1.821 0.74,-2.27 1.016,-0.883 2.482,-2.164 3.461,-1.943 1.249,0.282 2.927,1.767 3.12,2.946 0.35,2.151 0.054,4.54 -0.517,6.685 -2.616,9.823 -8.575,17.291 -16.809,23.051 -19.415,13.583 -49.471,14.348 -69.56,1.785 -15.897,-9.941 -23.015,-26.492 -19.067,-44.153 1.862,-8.329 6.541,-14.701 13.358,-19.602 C -26.916,89.86 -16.879,86.746 -6.654,84.12 3.527,81.505 13.768,79.106 23.88,76.249 28.204,75.027 32.435,73.203 36.422,71.107 53.433,62.162 58.259,42.565 47.609,26.436 42.879,19.273 36.301,14.359 28.356,11.5 11.154,5.308 -6.063,5.601 -22.715,13.249 c -12.778,5.868 -21.367,15.527 -23.55,29.977 -0.12,0.796 -0.135,1.853 -0.635,2.299 -1.1,0.98 -2.557,2.364 -3.723,2.237 -1.172,-0.128 -2.842,-1.749 -3.086,-2.96 -0.399,-1.972 -0.055,-4.195 0.393,-6.22 3.07,-13.863 11.41,-23.722 23.64,-30.465 C -18.921,2.186 -7.248,-0.025 0,0"
             style="fill:#000000;fill-opacity:1;fill-rule:nonzero;stroke:none"
             id="path44" />
        </g>
        <g
           id="g46"
           transform="translate(481.5145,721.3109)">
          <path
             d="m 0,0 c 0.001,-15.565 -0.232,-31.134 0.109,-46.692 0.148,-6.75 0.674,-13.691 2.424,-20.169 5.013,-18.56 16.977,-31.039 35.356,-36.882 14.915,-4.742 30.064,-4.8 44.962,-0.019 21.136,6.783 33.175,21.712 37.014,43.349 0.815,4.595 1.031,9.346 1.043,14.027 0.085,33.399 0.047,66.798 0.043,100.197 0,1.297 0.043,2.603 -0.1,3.887 -0.229,2.067 -1.521,3.2 -3.557,3.296 -2.281,0.109 -3.717,-1.1 -4.053,-3.328 -0.216,-1.43 -0.118,-2.912 -0.118,-4.37 -0.006,-33.399 0.109,-66.799 -0.11,-100.197 -0.039,-6.091 -0.662,-12.395 -2.336,-18.221 -5.712,-19.88 -19.743,-30.46 -39.737,-33.722 -9.24,-1.507 -18.442,-1.052 -27.48,1.328 -20.638,5.434 -34.074,22.072 -35.374,43.667 -0.194,3.233 -0.203,6.482 -0.204,9.723 -0.015,32.265 -0.008,64.529 -0.014,96.793 0,1.62 0.083,3.262 -0.147,4.854 C 7.409,59.686 6.114,61.097 3.792,61.038 1.511,60.981 0.208,59.714 0.088,57.392 0.014,55.936 0.003,54.476 0.003,53.017 -0.003,35.345 -0.001,17.672 0,0"
             style="fill:#000000;fill-opacity:1;fill-rule:nonzero;stroke:none"
             id="path48" />
        </g>
        <g
           id="g50"
           transform="translate(409.9046,773.2406)">
          <path
             d="m 0,0 c 13.389,0 26.023,-0.001 38.658,0 5.024,0.001 10.05,-0.074 15.071,0.037 3.189,0.07 4.622,1.37 4.633,3.761 0.011,2.374 -1.416,3.574 -4.626,3.818 -0.967,0.074 -1.944,0.024 -2.917,0.024 -36.464,0.001 -72.928,0.001 -109.393,0 -1.134,0 -2.278,0.071 -3.401,-0.046 -2.78,-0.289 -4.214,-1.612 -4.222,-3.76 -0.009,-2.162 1.458,-3.545 4.156,-3.796 1.125,-0.106 2.267,-0.037 3.401,-0.037 C -43.73,0 -28.82,0 -13.91,0 c 1.773,0 3.546,0 6.07,0 v -5.78 c 0,-48.145 -0.001,-96.29 0.002,-144.435 0,-1.459 -0.102,-2.933 0.073,-4.373 0.309,-2.551 1.979,-4.125 4.104,-3.889 2.227,0.248 3.494,1.578 3.606,3.853 0.072,1.456 0.053,2.917 0.053,4.375 C 0,-102.266 0,-54.282 0,-6.299 0,-4.39 0,-2.481 0,0"
             style="fill:#000000;fill-opacity:1;fill-rule:nonzero;stroke:none"
             id="path52" />
        </g>
        <g
           id="g54"
           transform="translate(775.3889,698.8334)">
          <path
             d="m 0,0 c 0,-25.432 -0.002,-50.863 0.004,-76.295 0.001,-1.456 -0.018,-2.92 0.115,-4.368 0.192,-2.076 1.523,-3.226 3.498,-3.393 2.036,-0.172 3.438,0.984 3.942,2.899 0.322,1.225 0.278,2.565 0.279,3.853 0.012,51.35 0.012,102.699 0,154.048 0,1.288 0.02,2.616 -0.266,3.856 -0.46,1.989 -1.91,2.994 -3.934,2.88 C 1.62,83.367 0.292,82.284 0.11,80.178 -0.014,78.729 0.004,77.266 0.004,75.809 -0.002,50.539 0,25.27 0,0"
             style="fill:#000000;fill-opacity:1;fill-rule:nonzero;stroke:none"
             id="path56" />
        </g>
      </g>
    </g>
  </g>
</svg>
